HIERARCHY
ROOT Hips
{
	OFFSET 0.000000 0.000000 0.000000
	CHANNELS 6 Xposition Yposition Zposition Zrotation Yrotation Xrotation 
	JOINT LHipJoint
	{
		OFFSET 0.000000 0.000000 0.000000
		CHANNELS 3 Zrotation Yrotation Xrotation
		JOINT LeftUpLeg
		{
			OFFSET 1.363060 -1.794630 0.839290
			CHANNELS 3 Zrotation Yrotation Xrotation
			JOINT LeftLeg
			{
				OFFSET 2.448110 -6.726130 0.000000
				CHANNELS 3 Zrotation Yrotation Xrotation
				JOINT LeftFoot
				{
					OFFSET 2.562200 -7.039590 0.000000
					CHANNELS 3 Zrotation Yrotation Xrotation
					JOINT LeftToeBase
					{
						OFFSET 0.157640 -0.433110 2.322550
						CHANNELS 3 Zrotation Yrotation Xrotation
						End Site
						{
							OFFSET 0.000000 0.000000 0.000000
						}
					}
				}
			}
		}
	}
	JOINT RHipJoint
	{
		OFFSET 0.000000 0.000000 0.000000
		CHANNELS 3 Zrotation Yrotation Xrotation
		JOINT RightUpLeg
		{
			OFFSET -1.305520 -1.794630 0.839290
			CHANNELS 3 Zrotation Yrotation Xrotation
			JOINT RightLeg
			{
				OFFSET -2.542530 -6.985550 0.000000
				CHANNELS 3 Zrotation Yrotation Xrotation
				JOINT RightFoot
				{
					OFFSET -2.568260 -7.056230 0.000000
					CHANNELS 3 Zrotation Yrotation Xrotation
					JOINT RightToeBase
					{
						OFFSET -0.164730 -0.452590 2.363150
						CHANNELS 3 Zrotation Yrotation Xrotation
						End Site
						{
							OFFSET 0.000000 0.000000 0.000000
						}
					}
				}
			}
		}
	}
	JOINT LowerBack
	{
		OFFSET 0.000000 0.000000 0.000000
		CHANNELS 3 Zrotation Yrotation Xrotation
		JOINT Spine
		{
			OFFSET 0.028270 2.035590 -0.193380
			CHANNELS 3 Zrotation Yrotation Xrotation
			JOINT Spine1
			{
				OFFSET 0.056720 2.048850 -0.042750
				CHANNELS 3 Zrotation Yrotation Xrotation
				JOINT Neck
				{
					OFFSET 0.000000 0.000000 0.000000
					CHANNELS 3 Zrotation Yrotation Xrotation
					JOINT Neck1
					{
						OFFSET -0.054170 1.746240 0.172020
						CHANNELS 3 Zrotation Yrotation Xrotation
						JOINT Head
						{
							OFFSET 0.104070 1.761360 -0.123970
							CHANNELS 3 Zrotation Yrotation Xrotation
							End Site
							{
								OFFSET 0.000000 0.000000 0.000000
							}
						}
					}
				}
				JOINT LeftShoulder
				{
					OFFSET 0.000000 0.000000 0.000000
					CHANNELS 3 Zrotation Yrotation Xrotation
					JOINT LeftArm
					{
						OFFSET 3.362410 1.200890 -0.311210
						CHANNELS 3 Zrotation Yrotation Xrotation
						JOINT LeftForeArm
						{
							OFFSET 4.983000 -0.000000 -0.000000
							CHANNELS 3 Zrotation Yrotation Xrotation
							JOINT LeftHand
							{
								OFFSET 3.483560 -0.000000 -0.000000
								CHANNELS 3 Zrotation Yrotation Xrotation
								JOINT LeftFingerBase
								{
									OFFSET 0.000000 0.000000 0.000000
									CHANNELS 3 Zrotation Yrotation Xrotation
									JOINT LeftHandIndex1
									{
										OFFSET 0.715260 -0.000000 -0.000000
										CHANNELS 3 Zrotation Yrotation Xrotation
										End Site
										{
											OFFSET 0.000000 0.000000 0.000000
										}
									}
								}
								JOINT LThumb
								{
									OFFSET 0.000000 0.000000 0.000000
									CHANNELS 3 Zrotation Yrotation Xrotation
									End Site
									{
										OFFSET 0.000000 0.000000 0.000000
									}
								}
							}
						}
					}
				}
				JOINT RightShoulder
				{
					OFFSET 0.000000 0.000000 0.000000
					CHANNELS 3 Zrotation Yrotation Xrotation
					JOINT RightArm
					{
						OFFSET -3.136600 1.374050 -0.404650
						CHANNELS 3 Zrotation Yrotation Xrotation
						JOINT RightForeArm
						{
							OFFSET -5.241900 -0.000000 -0.000000
							CHANNELS 3 Zrotation Yrotation Xrotation
							JOINT RightHand
							{
								OFFSET -3.444170 -0.000000 -0.000000
								CHANNELS 3 Zrotation Yrotation Xrotation
								JOINT RightFingerBase
								{
									OFFSET 0.000000 0.000000 0.000000
									CHANNELS 3 Zrotation Yrotation Xrotation
									JOINT RightHandIndex1
									{
										OFFSET -0.622530 -0.000000 -0.000000
										CHANNELS 3 Zrotation Yrotation Xrotation
										End Site
										{
											OFFSET 0.000000 0.000000 0.000000
										}
									}
								}
								JOINT RThumb
								{
									OFFSET 0.000000 0.000000 0.000000
									CHANNELS 3 Zrotation Yrotation Xrotation
									End Site
									{
										OFFSET 0.000000 0.000000 0.000000
									}
								}
							}
						}
					}
				}
			}
		}
	}
}
MOTION
Frames: 10
Frame Time: 0.008333
-11.134338 17.888726 -12.565472 0.796193 -4.985977 0.151352 -3.186888 0.926227 1.859852 -16.634413 -4.698728 -16.138582 -1.329704 4.049234 12.428153 0.549920 -1.888106 13.023796 0.086100 -1.892400 -5.208400 0.844747 -1.318350 1.304554 19.850729 0.672613 1.535871 -5.919668 -13.729454 44.232566 0.886052 -10.554228 14.724035 -0.167400 -2.635500 7.265500 1.035994 2.964842 7.584935 0.828455 4.068180 1.843763 -2.172374 2.131457 -2.763405 -11.209461 -3.763082 -10.621009 5.193465 -4.241183 29.324746 4.212000 -3.029400 16.967500 -6.897797 -0.638192 -1.462131 -84.560251 6.667619 8.700918 10.985653 -15.362177 -1.590504 -1.702292 -1.914583 18.358516 16.758716 21.986907 7.522100 -7.125000 0.000000 0.000000 -12.396500 54.931200 -3.058400 5.346417 1.110194 -0.957909 83.395183 4.442262 13.450748 -17.101117 25.162030 -4.063110 0.334612 -0.153832 6.461487 -14.467212 8.713944 -2.322400 7.125000 0.000000 0.000000 8.690300 -20.907300 5.074600 
-11.117008 17.903251 -12.419424 1.085474 -5.067174 -0.015148 -3.195702 0.982774 1.961321 -17.161498 -4.271697 -15.388598 -1.362329 3.851300 11.946270 0.554524 -2.019539 13.058837 0.070200 -1.708900 -4.701900 0.820740 -1.314235 1.250442 19.327821 0.702579 0.324759 -6.533869 -14.298977 46.540129 0.726360 -10.700938 16.198563 -0.379100 -3.954400 10.948500 0.746855 2.909890 7.653687 0.758814 3.975258 1.919764 -2.118593 2.080205 -2.683514 -11.267688 -3.770160 -10.769313 5.342912 -4.249797 29.302931 4.294100 -3.020600 17.006500 -6.894783 -0.642045 -1.462434 -84.477300 6.552364 9.527731 11.140549 -15.598096 -1.649901 -1.688179 -1.910343 17.706115 16.989237 21.715552 7.546700 -7.125000 0.000000 0.000000 -12.011700 54.687800 -2.889800 5.342648 1.117541 -0.956727 83.507730 4.194354 13.652164 -17.074531 25.131804 -4.056779 0.315205 -0.138112 6.479113 -13.826222 8.380596 -2.128300 7.125000 0.000000 0.000000 9.177300 -21.289600 5.285800 
-11.103085 17.916874 -12.274778 1.480133 -5.122664 -0.182891 -3.200079 1.027027 2.054525 -17.797112 -3.782024 -14.703716 -1.376781 3.704892 11.616707 0.568365 -2.359543 12.950818 0.040500 -1.298300 -3.569900 0.795110 -1.312261 1.203130 18.716087 0.739219 -0.861607 -7.145037 -14.831849 48.792444 0.650141 -10.929012 16.977288 -0.732200 -5.467100 15.245900 0.262836 2.838703 7.737671 0.704324 3.837803 1.984264 -1.920239 2.008475 -2.650132 -11.264860 -3.711428 -10.850108 5.332582 -4.151848 29.208447 4.294300 -2.977500 16.956100 -6.879869 -0.650980 -1.468209 -84.397735 6.608528 10.743420 11.349189 -15.925174 -1.731917 -1.629946 -1.974066 16.668828 16.725253 21.897059 7.476200 -7.125000 0.000000 0.000000 -12.409500 54.839800 -3.033900 5.340728 1.108415 -0.958812 83.602217 3.999204 13.893826 -17.077955 25.129569 -4.060527 0.305470 -0.110731 6.512974 -13.430127 7.681538 -1.889100 7.125000 0.000000 0.000000 9.501800 -22.042000 5.313100 
-11.091064 17.929996 -12.137544 1.786008 -5.175354 -0.251315 -3.206369 1.061629 2.137055 -18.297029 -3.353765 -14.104951 -1.392761 3.551607 11.264908 0.585747 -2.743764 12.817958 0.023800 -0.995900 -2.737500 0.769230 -1.307618 1.164315 18.258968 0.882892 -2.131856 -7.726844 -15.316726 50.948608 0.711587 -11.090046 16.518870 -0.712600 -5.394800 15.038000 -0.197399 2.788200 7.781631 0.705900 3.724184 1.975557 -1.633254 1.947989 -2.738450 -11.273352 -3.627174 -10.734855 5.208109 -4.012320 29.142572 4.245800 -2.937300 16.860400 -6.849669 -0.656566 -1.483513 -84.414381 6.905346 12.130544 11.611298 -16.341368 -1.837304 -1.585398 -2.035772 15.974716 16.549312 22.214048 7.484700 -7.125000 0.000000 0.000000 -12.788400 55.152200 -3.226600 5.336003 1.084293 -0.968902 83.546831 3.614806 14.306540 -17.074339 25.117125 -4.059404 0.303763 -0.100832 6.548403 -13.340202 7.415555 -1.809600 7.125000 0.000000 0.000000 9.581700 -22.324800 5.296300 
-11.078042 17.937409 -12.001813 2.108501 -5.128167 -0.374106 -3.206502 1.096216 2.205477 -18.823864 -3.057748 -13.498385 -1.398554 3.443845 11.030651 0.585599 -2.960837 12.689092 0.021900 -0.955100 -2.625400 0.747979 -1.300229 1.132768 17.739217 0.854664 -3.390787 -8.272580 -15.752659 52.997259 0.840189 -10.974984 15.092188 -0.398300 -4.051900 11.222800 -0.586313 2.705204 7.885467 0.662190 3.576630 1.976912 -1.466015 1.871233 -2.814599 -11.275481 -3.549073 -10.731743 5.196860 -3.896706 29.132603 4.254400 -2.893300 16.840000 -6.828143 -0.664434 -1.494580 -84.310424 7.041805 13.507346 11.846384 -16.711606 -1.936939 -1.556850 -2.040773 15.220120 16.714269 21.976379 7.488200 -7.125000 0.000000 0.000000 -12.497000 54.934200 -3.084700 5.330872 1.074571 -0.974082 83.566714 3.284090 14.395052 -16.917294 24.911740 -3.987356 0.302056 -0.132386 7.028431 -13.462707 8.123263 -2.005500 7.125000 0.000000 0.000000 9.458500 -21.573500 5.390400 
-11.064319 17.943619 -11.861174 2.409326 -5.068855 -0.571144 -3.201781 1.140459 2.273150 -19.309604 -2.891861 -12.801252 -1.393560 3.385683 10.927989 0.567462 -3.097105 12.332402 0.013800 -0.758700 -2.085200 0.726896 -1.298056 1.098442 17.244377 0.753479 -4.498071 -8.806447 -16.144777 54.880184 1.025690 -11.452174 13.948499 -0.349300 -3.797100 10.506600 -0.900586 2.616768 8.023314 0.613816 3.431888 2.009607 -1.358370 1.793775 -2.837737 -11.319686 -3.505158 -10.844318 5.253871 -3.820770 29.188044 4.304500 -2.865200 16.900500 -6.827556 -0.681569 -1.490316 -84.153178 6.848668 14.452428 11.910036 -16.804273 -1.968951 -1.565295 -1.994817 14.821833 17.128789 21.414429 7.509700 -7.125000 0.000000 0.000000 -11.757700 54.409300 -2.747100 5.328811 1.080035 -0.978872 83.627268 2.943562 14.391124 -16.848749 24.824799 -3.956456 0.302645 -0.154731 7.605818 -13.651635 8.581323 -2.151900 7.125000 0.000000 0.000000 9.300900 -21.081600 5.403200 
-11.050095 17.949329 -11.721737 2.669679 -5.080818 -0.786438 -3.198055 1.190465 2.351835 -19.747184 -2.672649 -12.047163 -1.392929 3.298788 10.750787 0.552953 -3.324646 11.839609 0.004400 -0.430600 -1.183200 0.703395 -1.301255 1.061697 16.794735 0.642717 -5.578004 -9.316424 -16.493642 56.585226 1.235060 -12.343581 13.227597 -0.472300 -4.407600 12.226400 -1.206537 2.550596 8.209916 0.603978 3.313640 2.012028 -1.192583 1.729010 -2.957084 -11.388523 -3.463024 -10.735064 5.264002 -3.756022 29.206236 4.331800 -2.852600 16.876900 -6.822821 -0.699802 -1.486355 -84.067543 6.712629 15.367651 11.977746 -16.901342 -2.001026 -1.544320 -2.010497 14.583783 16.980094 21.479477 7.459300 -7.125000 0.000000 0.000000 -11.955700 54.450000 -2.806300 5.326391 1.084305 -0.985154 83.585692 2.542388 14.575082 -16.840886 24.811649 -3.953615 0.300476 -0.152375 7.871859 -13.614382 8.464901 -2.116300 7.125000 0.000000 0.000000 9.333400 -21.204900 5.396200 
-11.038074 17.953035 -11.586006 2.910428 -5.119351 -0.947186 -3.195236 1.239038 2.425757 -20.155209 -2.443693 -11.287668 -1.406755 3.151595 10.401552 0.531882 -3.384958 11.484934 0.002400 -0.314800 -0.864800 0.680212 -1.301303 1.025129 16.377464 0.609512 -6.733608 -9.778056 -16.800146 58.145536 1.375548 -12.811527 12.509207 -0.512200 -4.587300 12.735100 -1.524253 2.477367 8.291485 0.597840 3.187124 2.064182 -1.002790 1.659404 -2.926103 -11.358494 -3.398471 -10.770741 5.169930 -3.651726 29.204872 4.290800 -2.817700 16.860500 -6.813753 -0.730378 -1.480838 -83.987038 6.493318 16.405785 12.110877 -17.101157 -2.058595 -1.542102 -2.036380 14.024257 17.176284 21.630770 7.600400 -7.125000 0.000000 0.000000 -11.815600 54.655600 -2.832300 5.332189 1.078620 -0.987104 83.583529 2.395728 14.583682 -16.733140 24.667832 -3.904436 0.297099 -0.163930 8.140428 -13.588778 8.707068 -2.173800 7.125000 0.000000 0.000000 9.343300 -20.949800 5.456700 
-11.027556 17.959046 -11.450876 3.183059 -5.076546 -1.122141 -3.189518 1.281937 2.496493 -20.643612 -2.088339 -10.570127 -1.419951 2.982394 9.999096 0.529142 -3.624729 11.228892 0.007000 -0.538900 -1.481000 0.656007 -1.298372 0.986485 15.924664 0.515041 -7.912484 -10.205274 -17.071039 59.572450 1.430438 -13.026136 12.212736 -0.566700 -4.821300 13.399700 -1.887974 2.342050 8.316899 0.599078 2.977980 2.169828 -0.762154 1.545187 -2.756389 -11.420718 -3.316939 -11.037287 5.105055 -3.473883 29.319316 4.298000 -2.767200 16.969200 -6.815627 -0.770506 -1.468927 -83.944113 6.031792 17.231750 12.207281 -17.237902 -2.097479 -1.576799 -2.091532 13.302150 17.715772 22.186648 8.044400 -7.125000 0.000000 0.000000 -11.485200 55.372500 -2.952800 5.343466 1.077718 -0.986196 83.572989 2.385934 14.563301 -16.610567 24.509947 -3.850003 0.290138 -0.187536 8.463939 -13.523916 9.297243 -2.311600 7.125000 0.000000 0.000000 9.370200 -20.331400 5.605300 
-11.017339 17.964254 -11.317349 3.409807 -5.021739 -1.328580 -3.181414 1.329169 2.571457 -21.076020 -1.731772 -9.826653 -1.433405 2.801722 9.566720 0.526981 -3.869789 10.972633 0.010700 -0.668600 -1.837300 0.632299 -1.297643 0.953099 15.515517 0.407169 -9.021501 -10.590891 -17.308421 60.859693 1.509266 -13.217545 11.648456 -0.635600 -5.101000 14.196900 -2.189109 2.246621 8.467792 0.606409 2.821263 2.192198 -0.556033 1.458872 -2.809425 -11.508453 -3.251672 -11.061653 5.100860 -3.353071 29.448618 4.334300 -2.740400 17.039300 -6.809514 -0.802140 -1.463857 -83.896544 5.723504 18.119938 12.333194 -17.424526 -2.149239 -1.593258 -2.194128 12.575386 17.979519 23.226647 8.520300 -7.125000 0.000000 0.000000 -11.727300 56.558900 -3.355300 5.346625 1.084553 -0.989408 83.583270 2.160425 14.434392 -16.532162 24.405397 -3.815732 0.279642 -0.193426 8.876098 -13.306354 9.396362 -2.297400 7.125000 0.000000 0.000000 9.527600 -20.236300 5.722700 
